<svg xmlns="http://www.w3.org/2000/svg" xmlns:xlink="http://www.w3.org/1999/xlink" xmlns:lucid="lucid" width="1084" height="1276"><g transform="translate(-98 -48)" lucid:page-tab-id="0_0"><path d="M120 958.92a8 8 0 0 1 8-8h84a8 8 0 0 1 8 8v4.93a17.07 17.07 0 0 1-5 12.07 17.07 17.07 0 0 1-12.07 5H128a8 8 0 0 1-8-8z" fill="#fff"/><path d="M220 950.92v20l-10 10h-90" stroke="#333" fill="none"/><path d="M120 958.92a8 8 0 0 1 8-8h984a8 8 0 0 1 8 8V1192a8 8 0 0 1-8 8H128a8 8 0 0 1-8-8z" stroke="#333" fill="none"/><use xlink:href="#a" transform="matrix(1,0,0,1,128,950.9191789580359) translate(21.24691358024691 18.555555555555557)"/><use xlink:href="#b" transform="matrix(1,0,0,1,132,988.9191789580359) translate(5.308641975308603 18.555555555555557)"/><path d="M698.7 342.5v10.07m.02 10.08l.02 20.15m.02 10.08l.03 20.15m0 10.07l.03 20.15m0 10.08l.04 20.15m0 10.07l.04 20.15m.03 10.08l.03 20.15m0 10.08l.04 20.16m0 10.07l.04 20.15m0 10.08l.04 20.15m.02 10.08l.02 20.15m.02 10.08l.03 20.16m0 10.07l.04 20.15m.02 10.08l.03 20.15m.02 10.1l.02 20.14m0 10.07l.04 20.16m0 10.08l.04 20.15m0 10.06l.04 20.15m0 10.1l.04 20.14m.02 10.08l.03 20.15m.02 10.07l.03 20.15m0 10.07l.04 20.15m0 10.07l.03 20.14m.02 10.08l.02 20.15m.02 10.07l.02 20.15m0 10.07l.04 20.15m0 10.08l.04 20.15m.02 10.07l.02 20.15m.02 10.08l.03 20.15m0 10.07l.03 20.15m0 10.08l.04 20.15m0 10.08l.03 10.07" stroke="#333" fill="none"/><path d="M699.2 342.5h-1v-.5h1z" stroke="#333" stroke-width=".05" fill="#333"/><path d="M700 1279.5v.5" stroke="#333" fill="none"/><path d="M679.76 417.73a8 8 0 0 1 8-8h24a8 8 0 0 1 8 8V1292a8 8 0 0 1-8 8h-24a8 8 0 0 1-8-8z" stroke="#f2f2f2" fill="#ced4db"/><path d="M1059.52 342.5v9.76m0 9.76v19.53m0 9.76v19.54m0 9.76v19.52m0 9.77v19.5m0 9.77v19.53m0 9.76V528m0 9.75v19.52m0 9.76v19.53m0 9.76v19.53m0 9.76v19.53m0 9.77v19.52m0 9.76v19.53m0 9.77V733m0 9.76v19.52m0 9.76v19.53m0 9.76v19.53m0 9.76v19.52m0 9.77v19.53m0 9.76v19.52m0 9.76V938m0 9.77v19.52m0 9.75v19.53m0 9.76v19.53m0 9.76v19.52m0 9.77v19.52m0 9.76v19.53m0 9.76V1143m0 9.76v9.76" stroke="#333" fill="none"/><path d="M1060.02 342.5h-1v-.5h1z" stroke="#333" stroke-width=".05" fill="#333"/><path d="M1059.52 1162.53v.5" stroke="#333" fill="none"/><path d="M1039.52 477.4a8 8 0 0 1 8-8h24a8 8 0 0 1 8 8V1272a8 8 0 0 1-8 8h-24a8 8 0 0 1-8-8z" stroke="#f2f2f2" fill="#ced4db"/><path d="M603.65 228a8 8 0 0 1 8-8h174.08a8 8 0 0 1 8 8v106a8 8 0 0 1-8 8H611.64a8 8 0 0 1-8-8z" stroke="#000" stroke-opacity="0" fill="#ffaf28"/><use xlink:href="#c" transform="matrix(1,0,0,1,611.6496896262572,228) translate(78.6358024691358 56.55555555555555)"/><path d="M964.48 228a8 8 0 0 1 8-8h174.08a8 8 0 0 1 8 8v106a8 8 0 0 1-8 8H972.48a8 8 0 0 1-8-8z" stroke="#000" stroke-opacity="0" fill="#ffcc78"/><use xlink:href="#d" transform="matrix(1,0,0,1,972.4836879544767,228) translate(52.932098765432094 56.55555555555555)"/><path d="M403.4 277.42c0 10.9-8.84 19.75-19.75 19.75-10.9 0-19.75-8.85-19.75-19.75s8.84-19.75 19.75-19.75c10.9 0 19.75 8.84 19.75 19.75z" stroke="#333" fill="#fff"/><path d="M383.65 297.17v47.3a27.6 27.6 0 0 0 4.28 14.75l35.72 56.45m-40-63.2l-40 63.2m0-98.75h80" stroke="#333" fill="none"/><path d="M343.65 265.67a8 8 0 0 1 8-8h64a8 8 0 0 1 8 8v164a8 8 0 0 1-8 8h-64a8 8 0 0 1-8-8z" fill="none"/><use xlink:href="#e" transform="matrix(1,0,0,1,263.6496896262572,415.6655519423589) translate(94.8641975308642 14.555555555555555)"/><path d="M384.15 353.4l.46.04.45.1.42.18.4.24.34.3.3.34.24.4.18.4.1.45.04.46v9.95m0 9.94v19.88m0 9.94v19.88m0 9.94v19.9m0 9.93v19.88m0 9.94v19.88m0 9.94v19.88m0 9.95v19.88m0 9.94v19.9m0 9.93v19.88m0 9.94v19.9m0 9.93v19.88m0 9.95v19.88m0 9.94V754m0 9.93v19.88m0 9.95v19.9m0 9.93v19.88m0 9.94v19.9m0 9.93v19.88m0 9.96v19.88m0 9.94v19.9m0 9.93v19.9m0 9.93v19.9m0 9.93v19.88m0 9.95v19.87m0 9.94v19.9m0 9.94v19.88m0 9.94v9.94M384.16 353.4h-3.5M387.06 1161.6v.5M387.56 459.9h275.32M387.57 459.9h-.5" stroke="#333" fill="none"/><path d="M677.64 459.9l-14.26 4.62v-9.27z" stroke="#333" fill="#333"/><use xlink:href="#f" transform="matrix(1,0,0,1,425.6282433423989,463.8874831216362) translate(0.0049999999999954525 14.222222222222223)"/><use xlink:href="#g" transform="matrix(1,0,0,1,425.6282433423989,463.8874831216362) translate(43.41240740740741 14.222222222222223)"/><use xlink:href="#h" transform="matrix(1,0,0,1,425.6282433423989,463.8874831216362) translate(73.04203703703703 14.222222222222223)"/><use xlink:href="#i" transform="matrix(1,0,0,1,425.6282433423989,463.8874831216362) translate(138.12845679012347 14.222222222222223)"/><use xlink:href="#j" transform="matrix(1,0,0,1,425.6282433423989,463.8874831216362) translate(157.88154320987655 14.222222222222223)"/><path d="M720.76 531.8h301.88" stroke="#333" fill="none"/><path d="M720.77 532.3h-.5v-1h.5z" stroke="#333" stroke-width=".05" fill="#333"/><path d="M1037.4 531.8l-14.26 4.64v-9.27z" stroke="#333" fill="#333"/><use xlink:href="#k" transform="matrix(1,0,0,1,820.9002969727005,535.8040980932749) translate(0.005000000000002558 14.222222222222223)"/><use xlink:href="#l" transform="matrix(1,0,0,1,820.9002969727005,535.8040980932749) translate(43.461790123456794 14.222222222222223)"/><use xlink:href="#m" transform="matrix(1,0,0,1,820.9002969727005,535.8040980932749) translate(82.91858024691359 14.222222222222223)"/><path d="M453.15 76a8 8 0 0 1 8-8h836.75a8 8 0 0 1 8 8v25.16a8 8 0 0 1-8 8H461.15a8 8 0 0 1-8-8z" stroke="#000" stroke-opacity="0" stroke-width="2" fill="#fff" fill-opacity="0"/><use xlink:href="#n" transform="matrix(1,0,0,1,457.14655278534315,72) translate(247.64456790123455 25.782777777777778)"/><use xlink:href="#o" transform="matrix(1,0,0,1,457.14655278534315,72) translate(378.5371604938272 25.782777777777778)"/><use xlink:href="#p" transform="matrix(1,0,0,1,457.14655278534315,72) translate(487.65074074074073 25.782777777777778)"/><path d="M725.02 107.8h318.26M725.04 107.8h-1.02M1043.26 107.8h1.02" stroke="#a9afb8" stroke-width="2" fill="none"/><path d="M453.15 117.16a8 8 0 0 1 8-8h837.7a8 8 0 0 1 8 8V120a8 8 0 0 1-8 8h-837.7a8 8 0 0 1-8-8z" stroke="#000" stroke-opacity="0" stroke-width="2" fill="#fff" fill-opacity="0"/><use xlink:href="#q" transform="matrix(1,0,0,1,457.1465527853436,113.15522395689881) translate(291.4476543209877 14.917037037037037)"/><use xlink:href="#r" transform="matrix(1,0,0,1,457.1465527853436,113.15522395689881) translate(349.1911728395062 14.917037037037037)"/><use xlink:href="#s" transform="matrix(1,0,0,1,457.1465527853436,113.15522395689881) translate(423.9305761316873 14.917037037037037)"/><use xlink:href="#t" transform="matrix(1,0,0,1,457.1465527853436,113.15522395689881) translate(436.3800617283951 14.917037037037037)"/><use xlink:href="#u" transform="matrix(1,0,0,1,457.1465527853436,113.15522395689881) translate(501.6867489711934 14.917037037037037)"/><use xlink:href="#v" transform="matrix(1,0,0,1,457.1465527853436,113.15522395689881) translate(527.1805761316873 14.917037037037037)"/><path d="M387.56 522.34h275.32M387.57 522.34h-.5" stroke="#333" fill="none"/><path d="M677.64 522.34l-14.26 4.64v-9.27z" stroke="#333" fill="#333"/><use xlink:href="#f" transform="matrix(1,0,0,1,413.7763955080523,526.34134004793) translate(0.0049999999999954525 14.222222222222223)"/><use xlink:href="#g" transform="matrix(1,0,0,1,413.7763955080523,526.34134004793) translate(43.41240740740741 14.222222222222223)"/><use xlink:href="#w" transform="matrix(1,0,0,1,413.7763955080523,526.34134004793) translate(73.04203703703703 14.222222222222223)"/><use xlink:href="#i" transform="matrix(1,0,0,1,413.7763955080523,526.34134004793) translate(122.37537037037038 14.222222222222223)"/><use xlink:href="#x" transform="matrix(1,0,0,1,413.7763955080523,526.34134004793) translate(142.12845679012347 14.222222222222223)"/><use xlink:href="#y" transform="matrix(1,0,0,1,413.7763955080523,526.34134004793) translate(190.47413580246914 14.222222222222223)"/><path d="M720.76 581h301.88" stroke="#333" fill="none"/><path d="M720.77 581.5h-.5v-1h.5z" stroke="#333" stroke-width=".05" fill="#333"/><path d="M1037.4 581l-14.26 4.64v-9.26z" stroke="#333" fill="#333"/><use xlink:href="#z" transform="matrix(1,0,0,1,792.7768462108087,585.0101763586619) translate(0.0049999999999954525 14.222222222222223)"/><use xlink:href="#A" transform="matrix(1,0,0,1,792.7768462108087,585.0101763586619) translate(29.63462962962963 14.222222222222223)"/><use xlink:href="#B" transform="matrix(1,0,0,1,792.7768462108087,585.0101763586619) translate(97.7333950617284 14.222222222222223)"/><path d="M1038.52 630.22H736.64" stroke="#333" fill="none"/><path d="M1039.02 630.72h-.5v-1h.5z" stroke="#333" stroke-width=".05" fill="#333"/><path d="M721.88 630.22l14.27-4.64v9.27z" stroke="#333" fill="#333"/><use xlink:href="#C" transform="matrix(1,0,0,1,770.5793211130239,634.2162492131181) translate(0.0049999999999954525 14.222222222222223)"/><use xlink:href="#A" transform="matrix(1,0,0,1,770.5793211130239,634.2162492131181) translate(74.0296913580247 14.222222222222223)"/><use xlink:href="#B" transform="matrix(1,0,0,1,770.5793211130239,634.2162492131181) translate(142.1284567901235 14.222222222222223)"/><path d="M678.76 652.93H403.44" stroke="#3a414a" fill="none"/><path d="M679.26 653.43h-.5v-1h.5z" stroke="#3a414a" stroke-width=".05" fill="#3a414a"/><path d="M388.68 652.93l14.26-4.64v9.26z" stroke="#3a414a" fill="#3a414a"/><use xlink:href="#D" transform="matrix(1,0,0,1,468.7342895043228,656.9266614571143) translate(0.0049999999999954525 14.4)"/><use xlink:href="#E" transform="matrix(1,0,0,1,468.7342895043228,656.9266614571143) translate(60.905 14.4)"/><path d="M387.56 720h275.32M387.57 720h-.5" stroke="#333" fill="none"/><path d="M677.64 720l-14.26 4.63v-9.26z" stroke="#333" fill="#333"/><use xlink:href="#F" transform="matrix(1,0,0,1,471.9986292111406,723.9999999330506) translate(0.005000000000002558 14.222222222222223)"/><use xlink:href="#g" transform="matrix(1,0,0,1,471.9986292111406,723.9999999330506) translate(39.412407407407414 14.222222222222223)"/><use xlink:href="#G" transform="matrix(1,0,0,1,471.9986292111406,723.9999999330506) translate(69.04203703703703 14.222222222222223)"/><path d="M720.76 687h301.88" stroke="#3a414a" fill="none"/><path d="M720.77 687.5h-.5v-1h.5z" stroke="#3a414a" stroke-width=".05" fill="#3a414a"/><path d="M1037.4 687l-14.26 4.63v-9.27z" stroke="#3a414a" fill="#3a414a"/><use xlink:href="#H" transform="matrix(1,0,0,1,823.1910576269927,690.9924777483511) translate(0.005000000000002558 14.4)"/><use xlink:href="#I" transform="matrix(1,0,0,1,823.1910576269927,690.9924777483511) translate(30.005000000000003 14.4)"/><path d="M1038.52 724.84H736.64" stroke="#3a414a" fill="none"/><path d="M1039.02 725.34h-.5v-1h.5z" stroke="#3a414a" stroke-width=".05" fill="#3a414a"/><path d="M721.88 724.84l14.27-4.63v9.28z" stroke="#3a414a" fill="#3a414a"/><use xlink:href="#J" transform="matrix(1,0,0,1,803.2160612788989,728.8432881612039) translate(0.0049999999999954525 14.4)"/><use xlink:href="#I" transform="matrix(1,0,0,1,803.2160612788989,728.8432881612039) translate(69.955 14.4)"/><path d="M387.56 756.24h275.32M387.57 756.24h-.5" stroke="#333" fill="none"/><path d="M677.64 756.24l-14.26 4.64v-9.27z" stroke="#333" fill="#333"/><use xlink:href="#K" transform="matrix(1,0,0,1,453.7270260681057,760.2423092794279) translate(0.0049999999999954525 14.222222222222223)"/><use xlink:href="#g" transform="matrix(1,0,0,1,453.7270260681057,760.2423092794279) translate(62.12845679012346 14.222222222222223)"/><use xlink:href="#L" transform="matrix(1,0,0,1,453.7270260681057,760.2423092794279) translate(91.75808641975308 14.222222222222223)"/><path d="M720.76 789.2h301.88" stroke="#3a414a" fill="none"/><path d="M720.77 789.7h-.5v-1h.5z" stroke="#3a414a" stroke-width=".05" fill="#3a414a"/><path d="M1037.4 789.2l-14.26 4.63v-9.28z" stroke="#3a414a" fill="#3a414a"/><use xlink:href="#M" transform="matrix(1,0,0,1,828.69106828229,793.18966527268) translate(0.005000000000002558 14.4)"/><use xlink:href="#N" transform="matrix(1,0,0,1,828.69106828229,793.18966527268) translate(44.005 14.4)"/><path d="M1038.52 823.25H736.64" stroke="#3a414a" fill="none"/><path d="M1039.02 823.75h-.5v-1h.5z" stroke="#3a414a" stroke-width=".05" fill="#3a414a"/><path d="M721.88 823.25l14.27-4.63v9.27z" stroke="#3a414a" fill="#3a414a"/><use xlink:href="#J" transform="matrix(1,0,0,1,777.7912658996694,827.2553750421692) translate(0.0049999999999954525 14.4)"/><use xlink:href="#O" transform="matrix(1,0,0,1,777.7912658996694,827.2553750421692) translate(69.955 14.4)"/><use xlink:href="#P" transform="matrix(1,0,0,1,777.7912658996694,827.2553750421692) translate(134.85500000000002 14.4)"/><path d="M678.76 834.6H403.44" stroke="#3a414a" fill="none"/><path d="M679.26 835.1h-.5v-1h.5z" stroke="#3a414a" stroke-width=".05" fill="#3a414a"/><path d="M388.68 834.6l14.26-4.63v9.28z" stroke="#3a414a" fill="#3a414a"/><use xlink:href="#D" transform="matrix(1,0,0,1,445.80922289788134,838.6106126257826) translate(0.0049999999999954525 14.4)"/><use xlink:href="#Q" transform="matrix(1,0,0,1,445.80922289788134,838.6106126257826) translate(60.905 14.4)"/><use xlink:href="#R" transform="matrix(1,0,0,1,445.80922289788134,838.6106126257826) translate(119.805 14.4)"/><path d="M720.76 853h301.88" stroke="#3a414a" fill="none"/><path d="M720.77 853.5h-.5v-1h.5z" stroke="#3a414a" stroke-width=".05" fill="#3a414a"/><path d="M1037.4 853l-14.26 4.63v-9.26z" stroke="#3a414a" fill="#3a414a"/><use xlink:href="#M" transform="matrix(1,0,0,1,805.216074652549,856.9999998557892) translate(0.0049999999999954525 14.4)"/><use xlink:href="#S" transform="matrix(1,0,0,1,805.216074652549,856.9999998557892) translate(44.004999999999995 14.4)"/><use xlink:href="#T" transform="matrix(1,0,0,1,805.216074652549,856.9999998557892) translate(104.905 14.4)"/><path d="M678.76 906.53H403.44" stroke="#3a414a" fill="none"/><path d="M679.26 907.03h-.5v-1h.5z" stroke="#3a414a" stroke-width=".05" fill="#3a414a"/><path d="M388.68 906.53l14.26-4.64v9.26z" stroke="#3a414a" fill="#3a414a"/><use xlink:href="#D" transform="matrix(1,0,0,1,480.7341324787463,910.5272231231718) translate(0.005000000000002558 14.4)"/><use xlink:href="#T" transform="matrix(1,0,0,1,480.7341324787463,910.5272231231718) translate(60.90500000000001 14.4)"/><path d="M387.56 960h275.32M387.57 960h-.5" stroke="#333" fill="none"/><path d="M677.64 960l-14.26 4.63v-9.26z" stroke="#333" fill="#333"/><use xlink:href="#U" transform="matrix(1,0,0,1,422.196171891319,964.000090004523) translate(0.0049999999999954525 14.222222222222223)"/><use xlink:href="#V" transform="matrix(1,0,0,1,422.196171891319,964.000090004523) translate(57.14080246913581 14.222222222222223)"/><use xlink:href="#W" transform="matrix(1,0,0,1,422.196171891319,964.000090004523) translate(117.33833333333334 14.222222222222223)"/><use xlink:href="#L" transform="matrix(1,0,0,1,422.196171891319,964.000090004523) translate(154.81981481481483 14.222222222222223)"/><path d="M720.76 891.4h301.88" stroke="#3a414a" fill="none"/><path d="M720.77 891.9h-.5v-1h.5z" stroke="#3a414a" stroke-width=".05" fill="#3a414a"/><path d="M1037.4 891.4l-14.26 4.62v-9.27z" stroke="#3a414a" fill="#3a414a"/><g><use xlink:href="#H" transform="matrix(1,0,0,1,826.1660792633772,895.3868513112867) translate(0.005000000000002558 14.4)"/><use xlink:href="#X" transform="matrix(1,0,0,1,826.1660792633772,895.3868513112867) translate(30.005000000000003 14.4)"/></g><path d="M1038.52 930H736.64" stroke="#3a414a" fill="none"/><path d="M1039.02 930.5h-.5v-1h.5z" stroke="#3a414a" stroke-width=".05" fill="#3a414a"/><path d="M721.88 930l14.27-4.63v9.26z" stroke="#3a414a" fill="#3a414a"/><g><use xlink:href="#J" transform="matrix(1,0,0,1,806.1910839013874,934.0000000845503) translate(0.0049999999999954525 14.4)"/><use xlink:href="#X" transform="matrix(1,0,0,1,806.1910839013874,934.0000000845503) translate(69.955 14.4)"/></g><path d="M387.56 1009.84h275.32M387.57 1009.84h-.5" stroke="#333" fill="none"/><path d="M677.64 1009.84l-14.26 4.64v-9.27z" stroke="#333" fill="#333"/><g><use xlink:href="#F" transform="matrix(1,0,0,1,471.9986419412178,1013.8429559797529) translate(0.005000000000002558 14.222222222222223)"/><use xlink:href="#g" transform="matrix(1,0,0,1,471.9986419412178,1013.8429559797529) translate(39.412407407407414 14.222222222222223)"/><use xlink:href="#G" transform="matrix(1,0,0,1,471.9986419412178,1013.8429559797529) translate(69.04203703703703 14.222222222222223)"/></g><path d="M387.56 1040h275.32M387.57 1040h-.5" stroke="#333" fill="none"/><path d="M677.64 1040l-14.26 4.63v-9.27z" stroke="#333" fill="#333"/><g><use xlink:href="#K" transform="matrix(1,0,0,1,453.72703877015135,1044.0001755142896) translate(0.0049999999999954525 14.222222222222223)"/><use xlink:href="#g" transform="matrix(1,0,0,1,453.72703877015135,1044.0001755142896) translate(62.12845679012346 14.222222222222223)"/><use xlink:href="#L" transform="matrix(1,0,0,1,453.72703877015135,1044.0001755142896) translate(91.75808641975308 14.222222222222223)"/></g><path d="M720.76 1060h301.88" stroke="#3a414a" fill="none"/><path d="M720.77 1060.5h-.5v-1h.5z" stroke="#3a414a" stroke-width=".05" fill="#3a414a"/><path d="M1037.4 1060l-14.26 4.63v-9.27z" stroke="#3a414a" fill="#3a414a"/><g><use xlink:href="#M" transform="matrix(1,0,0,1,828.6910900236924,1064.0001670498282) translate(0.005000000000002558 14.4)"/><use xlink:href="#N" transform="matrix(1,0,0,1,828.6910900236924,1064.0001670498282) translate(44.005 14.4)"/></g><path d="M1038.52 1100H736.64" stroke="#3a414a" fill="none"/><path d="M1039.02 1100.5h-.5v-1h.5z" stroke="#3a414a" stroke-width=".05" fill="#3a414a"/><path d="M721.88 1100l14.26-4.64v9.28z" stroke="#3a414a" fill="#3a414a"/><g><use xlink:href="#J" transform="matrix(1,0,0,1,777.7910977716327,1104.000217971794) translate(0.0049999999999954525 14.4)"/><use xlink:href="#O" transform="matrix(1,0,0,1,777.7910977716327,1104.000217971794) translate(69.955 14.4)"/><use xlink:href="#P" transform="matrix(1,0,0,1,777.7910977716327,1104.000217971794) translate(134.85500000000002 14.4)"/></g><path d="M699.27 1116.5H403.44M699.26 1116.5h.5" stroke="#3a414a" fill="none"/><path d="M388.68 1116.5l14.26-4.64v9.27z" stroke="#3a414a" fill="#3a414a"/><g><use xlink:href="#D" transform="matrix(1,0,0,1,456.06427398829476,1120.4961036727286) translate(0.0049999999999954525 14.4)"/><use xlink:href="#Q" transform="matrix(1,0,0,1,456.06427398829476,1120.4961036727286) translate(60.905 14.4)"/><use xlink:href="#R" transform="matrix(1,0,0,1,456.06427398829476,1120.4961036727286) translate(119.805 14.4)"/></g><path d="M678.76 1150.66H403.44" stroke="#3a414a" fill="none"/><path d="M679.26 1151.16h-.5v-1h.5z" stroke="#3a414a" stroke-width=".05" fill="#3a414a"/><path d="M388.68 1150.66l14.26-4.63v9.27z" stroke="#3a414a" fill="#3a414a"/><g><use xlink:href="#D" transform="matrix(1,0,0,1,480.734146906078,1154.6649810551148) translate(0.005000000000002558 14.4)"/><use xlink:href="#T" transform="matrix(1,0,0,1,480.734146906078,1154.6649810551148) translate(60.90500000000001 14.4)"/></g><path d="M720.76 1140h301.88" stroke="#3a414a" fill="none"/><path d="M720.77 1140.5h-.5v-1h.5z" stroke="#3a414a" stroke-width=".05" fill="#3a414a"/><path d="M1037.4 1140l-14.26 4.63v-9.27z" stroke="#3a414a" fill="#3a414a"/><g><use xlink:href="#M" transform="matrix(1,0,0,1,805.2161091254936,1144.000011355566) translate(0.0049999999999954525 14.4)"/><use xlink:href="#S" transform="matrix(1,0,0,1,805.2161091254936,1144.000011355566) translate(44.004999999999995 14.4)"/><use xlink:href="#T" transform="matrix(1,0,0,1,805.2161091254936,1144.000011355566) translate(104.905 14.4)"/></g><path d="M720.76 1214.67h301.88" stroke="#3a414a" fill="none"/><path d="M720.77 1215.17h-.5v-1h.5z" stroke="#3a414a" stroke-width=".05" fill="#3a414a"/><path d="M1037.4 1214.67l-14.26 4.63v-9.27z" stroke="#3a414a" fill="#3a414a"/><g><use xlink:href="#H" transform="matrix(1,0,0,1,821.1911180940629,1218.6666673993718) translate(0.005000000000002558 14.4)"/><use xlink:href="#Y" transform="matrix(1,0,0,1,821.1911180940629,1218.6666673993718) translate(30.005000000000003 14.4)"/></g><defs><path fill="#333" d="M11 0l48-248h34L50-27h125l-5 27H11" id="Z"/><path fill="#333" d="M30-147c31-64 166-65 159 27C183-49 158 1 86 4 9 8 1-88 30-147zM88-20c53 0 68-48 68-100 0-31-11-51-44-50-52 1-68 46-68 97 0 32 13 53 44 53" id="aa"/><path fill="#333" d="M67-162c32-53 139-36 121 50C175-51 163 2 97 4 68 4 52-11 42-31 38 6 28 39 22 75H-9l50-265h29c-1 10 0 20-3 28zm89 36c0-26-10-43-35-43-54 0-67 50-69 103-1 29 14 45 42 46 53 0 62-58 62-106" id="ab"/><g id="a"><use transform="matrix(0.04938271604938272,0,0,0.04938271604938272,0,0)" xlink:href="#Z"/><use transform="matrix(0.04938271604938272,0,0,0.04938271604938272,9.876543209876544,0)" xlink:href="#aa"/><use transform="matrix(0.04938271604938272,0,0,0.04938271604938272,19.75308641975309,0)" xlink:href="#aa"/><use transform="matrix(0.04938271604938272,0,0,0.04938271604938272,29.629629629629633,0)" xlink:href="#ab"/></g><path fill="#333" d="M-7 75l65-336h72l-5 23H84L28 52h41l-4 23H-7" id="ac"/><path fill="#333" d="M125-24c46 0 70-25 89-51l25 16C214-24 183 4 123 4 8 4-5-146 60-208c32-50 158-61 191-5 5 7 9 14 11 22l-32 10c-9-28-33-43-69-43-74 0-108 51-108 125 0 46 24 75 72 75" id="ad"/><path fill="#333" d="M67-158c22-48 132-52 116 29L158 0h-32l25-140c3-38-53-32-70-12C52-117 51-52 38 0H6l36-190h30" id="ae"/><path fill="#333" d="M133-28C103 26-5 8 13-77c13-62 24-115 90-117 29-1 46 15 56 35l19-102h32L160 0h-30zM45-64c-2 27 10 43 35 43 54-1 69-50 69-103 0-29-15-46-42-46-53-1-58 58-62 106" id="af"/><path fill="#333" d="M50-231l6-30h32l-6 30H50zM6 0l37-190h31L37 0H6" id="ag"/><path fill="#333" d="M51-54c-9 22 5 41 31 30L79-1C43 14 10-4 19-52l22-115H19l5-23h22l19-43h21l-9 43h35l-4 23H73" id="ah"/><path fill="#333" d="M18-82l6-28h88l-6 28H18" id="ai"/><path fill="#333" d="M133-28C103 26-5 8 13-77c13-62 24-115 90-117 29-1 46 15 56 35 2-12 6-24 8-34h31L144 75h-31zM45-64c-2 27 10 43 35 43 54-1 69-50 69-103 0-29-15-46-42-46-53-1-58 58-62 106" id="aj"/><path fill="#333" d="M67 3c-93-2-31-127-26-193h32L48-50c-3 39 53 32 70 12 30-34 30-101 43-152h32L157 0h-30c1-10 6-24 4-33-14 20-29 37-64 36" id="ak"/><path fill="#333" d="M111-194c62-3 86 47 72 106H45c-7 38 6 69 45 68 27-1 43-14 53-32l24 11C152-15 129 4 87 4 38 3 12-23 12-71c0-70 32-119 99-123zm44 81c14-66-71-72-95-28-4 8-8 17-11 28h106" id="al"/><path fill="#333" d="M55-144c13 50 104 24 104 88C159 21 15 23 1-39l26-10c6 40 102 42 102-4-13-50-104-23-104-87 0-71 143-71 148-8l-29 4c-5-35-85-37-89 0" id="am"/><path fill="#333" d="M187 0l-14-72H61L19 0h-37l149-248h38L221 0h-34zm-19-99l-22-123L76-99h92" id="an"/><path fill="#333" d="M89 0H52L20-190h33L74-25l89-165h34" id="ao"/><path fill="#333" d="M165-48c-4 18 1 34 23 27l-3 20c-29 8-62 0-52-35h-2C116-14 99 4 63 4 30 4 8-16 8-49c0-68 71-67 138-67 10-26 0-56-31-54-26 1-42 9-47 31l-32-5c8-67 160-71 144 15-5 28-9 54-15 81zM42-50c3 52 80 24 89-6 7-12 7-24 11-38-47 1-103-4-100 44" id="ap"/><path fill="#333" d="M6 0l50-261h32L37 0H6" id="aq"/><path fill="#333" d="M68-162c25-46 127-43 121 31C183-60 169 1 98 4 69 5 53-11 43-31L36 0H5l52-261h31zm88 36c2-27-9-43-34-43-55 0-70 51-70 103 0 29 15 45 43 46 52 0 58-58 61-106" id="ar"/><path fill="#333" d="M-30 75l5-23h40l57-290H31l4-23h72L42 75h-72" id="as"/><g id="b"><use transform="matrix(0.04938271604938272,0,0,0.04938271604938272,0,0)" xlink:href="#ac"/><use transform="matrix(0.04938271604938272,0,0,0.04938271604938272,4.938271604938272,0)" xlink:href="#ad"/><use transform="matrix(0.04938271604938272,0,0,0.04938271604938272,17.7283950617284,0)" xlink:href="#aa"/><use transform="matrix(0.04938271604938272,0,0,0.04938271604938272,27.604938271604947,0)" xlink:href="#ae"/><use transform="matrix(0.04938271604938272,0,0,0.04938271604938272,37.48148148148149,0)" xlink:href="#af"/><use transform="matrix(0.04938271604938272,0,0,0.04938271604938272,47.35802469135803,0)" xlink:href="#ag"/><use transform="matrix(0.04938271604938272,0,0,0.04938271604938272,51.25925925925927,0)" xlink:href="#ah"/><use transform="matrix(0.04938271604938272,0,0,0.04938271604938272,56.19753086419754,0)" xlink:href="#ag"/><use transform="matrix(0.04938271604938272,0,0,0.04938271604938272,60.09876543209877,0)" xlink:href="#aa"/><use transform="matrix(0.04938271604938272,0,0,0.04938271604938272,69.97530864197532,0)" xlink:href="#ae"/><use transform="matrix(0.04938271604938272,0,0,0.04938271604938272,79.85185185185186,0)" xlink:href="#ai"/><use transform="matrix(0.04938271604938272,0,0,0.04938271604938272,85.7283950617284,0)" xlink:href="#aj"/><use transform="matrix(0.04938271604938272,0,0,0.04938271604938272,95.60493827160495,0)" xlink:href="#ak"/><use transform="matrix(0.04938271604938272,0,0,0.04938271604938272,105.4814814814815,0)" xlink:href="#al"/><use transform="matrix(0.04938271604938272,0,0,0.04938271604938272,115.35802469135804,0)" xlink:href="#am"/><use transform="matrix(0.04938271604938272,0,0,0.04938271604938272,124.24691358024693,0)" xlink:href="#ah"/><use transform="matrix(0.04938271604938272,0,0,0.04938271604938272,129.1851851851852,0)" xlink:href="#ag"/><use transform="matrix(0.04938271604938272,0,0,0.04938271604938272,133.08641975308643,0)" xlink:href="#aa"/><use transform="matrix(0.04938271604938272,0,0,0.04938271604938272,142.962962962963,0)" xlink:href="#ae"/><use transform="matrix(0.04938271604938272,0,0,0.04938271604938272,152.83950617283955,0)" xlink:href="#an"/><use transform="matrix(0.04938271604938272,0,0,0.04938271604938272,164.34567901234573,0)" xlink:href="#ao"/><use transform="matrix(0.04938271604938272,0,0,0.04938271604938272,173.2345679012346,0)" xlink:href="#ap"/><use transform="matrix(0.04938271604938272,0,0,0.04938271604938272,183.11111111111114,0)" xlink:href="#ag"/><use transform="matrix(0.04938271604938272,0,0,0.04938271604938272,187.01234567901238,0)" xlink:href="#aq"/><use transform="matrix(0.04938271604938272,0,0,0.04938271604938272,190.91358024691363,0)" xlink:href="#ap"/><use transform="matrix(0.04938271604938272,0,0,0.04938271604938272,200.79012345679018,0)" xlink:href="#ar"/><use transform="matrix(0.04938271604938272,0,0,0.04938271604938272,210.66666666666674,0)" xlink:href="#aq"/><use transform="matrix(0.04938271604938272,0,0,0.04938271604938272,214.56790123456796,0)" xlink:href="#al"/><use transform="matrix(0.04938271604938272,0,0,0.04938271604938272,224.4444444444445,0)" xlink:href="#as"/></g><path fill="#333" d="M62-99C39-31 123 0 170-40s38-139 58-208h34C234-144 253 4 115 4 49 4 18-43 31-112l26-136h34" id="at"/><path fill="#333" d="M14 0l48-248h34L48 0H14" id="au"/><g id="c"><use transform="matrix(0.04938271604938272,0,0,0.04938271604938272,0,0)" xlink:href="#at"/><use transform="matrix(0.04938271604938272,0,0,0.04938271604938272,12.790123456790125,0)" xlink:href="#au"/><path fill="#333" d="M-.9 1.23h19.52v1.3H-.88z"/></g><path fill="#333" d="M219-77C219 17 104-2 11 0l48-248c73 2 169-15 169 57 0 38-24 54-60 60 29 5 51 21 51 54zm-26-111c0-44-62-31-105-33l-16 79c55 0 121 9 121-46zm-7 110c-1-49-69-36-119-38L50-27c61-1 137 12 136-51" id="av"/><path fill="#333" d="M44-68c0 29 11 47 38 47 30 0 42-19 51-41l28 9C148-21 126 4 82 4 31 4 10-29 12-85c3-77 74-140 146-93 12 8 15 23 18 40l-31 5c-1-22-13-36-36-36-52 0-65 49-65 101" id="aw"/><path fill="#333" d="M127 0L80-88 50-66 37 0H6l51-261h31L57-100l99-90h39l-93 82L161 0h-34" id="ax"/><g id="d"><use transform="matrix(0.04938271604938272,0,0,0.04938271604938272,0,0)" xlink:href="#av"/><use transform="matrix(0.04938271604938272,0,0,0.04938271604938272,11.851851851851853,0)" xlink:href="#ap"/><use transform="matrix(0.04938271604938272,0,0,0.04938271604938272,21.7283950617284,0)" xlink:href="#aw"/><use transform="matrix(0.04938271604938272,0,0,0.04938271604938272,30.617283950617285,0)" xlink:href="#ax"/><use transform="matrix(0.04938271604938272,0,0,0.04938271604938272,39.50617283950618,0)" xlink:href="#al"/><use transform="matrix(0.04938271604938272,0,0,0.04938271604938272,49.38271604938272,0)" xlink:href="#ae"/><use transform="matrix(0.04938271604938272,0,0,0.04938271604938272,59.25925925925927,0)" xlink:href="#af"/><path fill="#333" d="M-.9 1.23h70.92v1.3H-.88z"/></g><path fill="#333" d="M238-179c0 84-86 86-175 82L45 0H11l48-248c82 0 179-12 179 69zm-34 1c0-53-64-42-116-43l-19 98c63 0 135 9 135-55" id="ay"/><path fill="#333" d="M198-190L69 30C53 58 25 83-20 72c4-11-1-27 19-22 33-1 43-29 59-52L20-190h32L79-34l84-156h35" id="az"/><path fill="#333" d="M66-151c12-25 30-51 66-40l-6 26C45-176 58-65 38 0H6l36-190h30" id="aA"/><g id="e"><use transform="matrix(0.04938271604938272,0,0,0.04938271604938272,0,0)" xlink:href="#ay"/><use transform="matrix(0.04938271604938272,0,0,0.04938271604938272,11.851851851851853,0)" xlink:href="#aq"/><use transform="matrix(0.04938271604938272,0,0,0.04938271604938272,15.753086419753087,0)" xlink:href="#ap"/><use transform="matrix(0.04938271604938272,0,0,0.04938271604938272,25.629629629629633,0)" xlink:href="#az"/><use transform="matrix(0.04938271604938272,0,0,0.04938271604938272,34.51851851851852,0)" xlink:href="#al"/><use transform="matrix(0.04938271604938272,0,0,0.04938271604938272,44.39506172839506,0)" xlink:href="#aA"/></g><g id="f"><use transform="matrix(0.04938271604938272,0,0,0.04938271604938272,0,0)" xlink:href="#ag"/><use transform="matrix(0.04938271604938272,0,0,0.04938271604938272,3.901234567901235,0)" xlink:href="#ae"/><use transform="matrix(0.04938271604938272,0,0,0.04938271604938272,13.777777777777779,0)" xlink:href="#ab"/><use transform="matrix(0.04938271604938272,0,0,0.04938271604938272,23.654320987654323,0)" xlink:href="#ak"/><use transform="matrix(0.04938271604938272,0,0,0.04938271604938272,33.53086419753087,0)" xlink:href="#ah"/></g><path fill="#333" d="M67-158c15-20 31-36 64-36 94 0 33 127 27 194h-32l25-140c3-38-53-32-70-12C52-117 51-51 37 0H6l51-261h31" id="aB"/><g id="g"><use transform="matrix(0.04938271604938272,0,0,0.04938271604938272,0,0)" xlink:href="#ah"/><use transform="matrix(0.04938271604938272,0,0,0.04938271604938272,4.938271604938272,0)" xlink:href="#aB"/><use transform="matrix(0.04938271604938272,0,0,0.04938271604938272,14.814814814814817,0)" xlink:href="#al"/></g><path fill="#333" d="M248-111c6-24 9-61-24-58-72 9-57 108-77 169h-31l26-142c3-37-50-30-64-10C52-115 50-51 37 0H6l36-190h30c-1 10-6 24-4 32 13-43 101-52 105 5 13-22 29-41 61-41 90 0 28 129 23 194h-31" id="aC"/><g id="h"><use transform="matrix(0.04938271604938272,0,0,0.04938271604938272,0,0)" xlink:href="#ae"/><use transform="matrix(0.04938271604938272,0,0,0.04938271604938272,9.876543209876544,0)" xlink:href="#ak"/><use transform="matrix(0.04938271604938272,0,0,0.04938271604938272,19.75308641975309,0)" xlink:href="#aC"/><use transform="matrix(0.04938271604938272,0,0,0.04938271604938272,34.51851851851852,0)" xlink:href="#ar"/><use transform="matrix(0.04938271604938272,0,0,0.04938271604938272,44.39506172839506,0)" xlink:href="#al"/><use transform="matrix(0.04938271604938272,0,0,0.04938271604938272,54.27160493827161,0)" xlink:href="#aA"/></g><path fill="#333" d="M76-167L44 0H12l33-167H18l4-23h27c3-47 25-81 82-69l-4 24c-35-8-44 15-46 45h37l-5 23H76" id="aD"/><g id="i"><use transform="matrix(0.04938271604938272,0,0,0.04938271604938272,0,0)" xlink:href="#aa"/><use transform="matrix(0.04938271604938272,0,0,0.04938271604938272,9.876543209876544,0)" xlink:href="#aD"/></g><g id="j"><use transform="matrix(0.04938271604938272,0,0,0.04938271604938272,0,0)" xlink:href="#ab"/><use transform="matrix(0.04938271604938272,0,0,0.04938271604938272,9.876543209876544,0)" xlink:href="#aq"/><use transform="matrix(0.04938271604938272,0,0,0.04938271604938272,13.777777777777779,0)" xlink:href="#ap"/><use transform="matrix(0.04938271604938272,0,0,0.04938271604938272,23.654320987654323,0)" xlink:href="#az"/><use transform="matrix(0.04938271604938272,0,0,0.04938271604938272,32.543209876543216,0)" xlink:href="#al"/><use transform="matrix(0.04938271604938272,0,0,0.04938271604938272,42.41975308641976,0)" xlink:href="#aA"/><use transform="matrix(0.04938271604938272,0,0,0.04938271604938272,48.296296296296305,0)" xlink:href="#am"/></g><g id="k"><use transform="matrix(0.04938271604938272,0,0,0.04938271604938272,0,0)" xlink:href="#am"/><use transform="matrix(0.04938271604938272,0,0,0.04938271604938272,8.88888888888889,0)" xlink:href="#al"/><use transform="matrix(0.04938271604938272,0,0,0.04938271604938272,18.765432098765434,0)" xlink:href="#ae"/><use transform="matrix(0.04938271604938272,0,0,0.04938271604938272,28.641975308641978,0)" xlink:href="#af"/></g><g id="l"><use transform="matrix(0.04938271604938272,0,0,0.04938271604938272,0,0)" xlink:href="#ak"/><use transform="matrix(0.04938271604938272,0,0,0.04938271604938272,9.876543209876544,0)" xlink:href="#am"/><use transform="matrix(0.04938271604938272,0,0,0.04938271604938272,18.765432098765434,0)" xlink:href="#al"/><use transform="matrix(0.04938271604938272,0,0,0.04938271604938272,28.641975308641978,0)" xlink:href="#aA"/></g><g id="m"><use transform="matrix(0.04938271604938272,0,0,0.04938271604938272,0,0)" xlink:href="#af"/><use transform="matrix(0.04938271604938272,0,0,0.04938271604938272,9.876543209876544,0)" xlink:href="#ap"/><use transform="matrix(0.04938271604938272,0,0,0.04938271604938272,19.75308641975309,0)" xlink:href="#ah"/><use transform="matrix(0.04938271604938272,0,0,0.04938271604938272,24.69135802469136,0)" xlink:href="#ap"/></g><path fill="#a9afb8" d="M169-182c-1-43-94-46-97-3 18 66 151 10 154 114 3 95-165 93-204 36-6-8-10-19-12-30l50-8c3 46 112 56 116 5-17-69-150-10-154-114-4-87 153-88 188-35 5 8 8 18 10 28" id="aE"/><path fill="#a9afb8" d="M185-48c-13 30-37 53-82 52C43 2 14-33 14-96s30-98 90-98c62 0 83 45 84 108H66c0 31 8 55 39 56 18 0 30-7 34-22zm-45-69c5-46-57-63-70-21-2 6-4 13-4 21h74" id="aF"/><path fill="#a9afb8" d="M84 4C32 4 15-41 15-95c0-55 18-99 73-99 29 0 47 12 58 34l2-30h48l-1 265h-49V-32C136-9 114 4 84 4zm21-34c32 0 41-29 41-66 0-36-9-64-40-64-33 0-39 30-40 65 0 43 13 65 39 65" id="aG"/><path fill="#a9afb8" d="M85 4C-2 5 27-109 22-190h50c7 57-23 150 33 157 60-5 35-97 40-157h50l1 190h-47c-2-12 1-28-3-38-12 25-28 42-61 42" id="aH"/><path fill="#a9afb8" d="M135-194c87-1 58 113 63 194h-50c-7-57 23-157-34-157-59 0-34 97-39 157H25l-1-190h47c2 12-1 28 3 38 12-26 28-41 61-42" id="aI"/><path fill="#a9afb8" d="M190-63c-7 42-38 67-86 67-59 0-84-38-90-98-12-110 154-137 174-36l-49 2c-2-19-15-32-35-32-30 0-35 28-38 64-6 74 65 87 74 30" id="aJ"/><g id="n"><use transform="matrix(0.0728395061728395,0,0,0.0728395061728395,0,0)" xlink:href="#aE"/><use transform="matrix(0.0728395061728395,0,0,0.0728395061728395,17.48148148148148,0)" xlink:href="#aF"/><use transform="matrix(0.0728395061728395,0,0,0.0728395061728395,32.04938271604938,0)" xlink:href="#aG"/><use transform="matrix(0.0728395061728395,0,0,0.0728395061728395,48.00123456790123,0)" xlink:href="#aH"/><use transform="matrix(0.0728395061728395,0,0,0.0728395061728395,63.95308641975308,0)" xlink:href="#aF"/><use transform="matrix(0.0728395061728395,0,0,0.0728395061728395,78.52098765432098,0)" xlink:href="#aI"/><use transform="matrix(0.0728395061728395,0,0,0.0728395061728395,94.47283950617283,0)" xlink:href="#aJ"/><use transform="matrix(0.0728395061728395,0,0,0.0728395061728395,109.04074074074072,0)" xlink:href="#aF"/></g><path fill="#a9afb8" d="M88-194c31-1 46 15 58 34l-1-101h50l1 261h-48c-2-10 0-23-3-31C134-8 116 4 84 4 32 4 16-41 15-95c0-56 19-97 73-99zm17 164c33 0 40-30 41-66 1-37-9-64-41-64s-38 30-39 65c0 43 13 65 39 65" id="aK"/><path fill="#a9afb8" d="M25-224v-37h50v37H25zM25 0v-190h50V0H25" id="aL"/><path fill="#a9afb8" d="M133-34C117-15 103 5 69 4 32 3 11-16 11-54c-1-60 55-63 116-61 1-26-3-47-28-47-18 1-26 9-28 27l-52-2c7-38 36-58 82-57s74 22 75 68l1 82c-1 14 12 18 25 15v27c-30 8-71 5-69-32zm-48 3c29 0 43-24 42-57-32 0-66-3-65 30 0 17 8 27 23 27" id="aM"/><path fill="#a9afb8" d="M195-6C206 82 75 100 31 46c-4-6-6-13-8-21l49-6c3 16 16 24 34 25 40 0 42-37 40-79-11 22-30 35-61 35-53 0-70-43-70-97 0-56 18-96 73-97 30 0 46 14 59 34l2-30h47zm-90-29c32 0 41-27 41-63 0-35-9-62-40-62-32 0-39 29-40 63 0 36 9 62 39 62" id="aN"/><path fill="#a9afb8" d="M135-150c-39-12-60 13-60 57V0H25l-1-190h47c2 13-1 29 3 40 6-28 27-53 61-41v41" id="aO"/><path fill="#a9afb8" d="M220-157c-53 9-28 100-34 157h-49v-107c1-27-5-49-29-50C55-147 81-57 75 0H25l-1-190h47c2 12-1 28 3 38 10-53 101-56 108 0 13-22 24-43 59-42 82 1 51 116 57 194h-49v-107c-1-25-5-48-29-50" id="aP"/><g id="o"><use transform="matrix(0.0728395061728395,0,0,0.0728395061728395,0,0)" xlink:href="#aK"/><use transform="matrix(0.0728395061728395,0,0,0.0728395061728395,15.95185185185185,0)" xlink:href="#aL"/><use transform="matrix(0.0728395061728395,0,0,0.0728395061728395,23.235802469135802,0)" xlink:href="#aM"/><use transform="matrix(0.0728395061728395,0,0,0.0728395061728395,37.803703703703704,0)" xlink:href="#aN"/><use transform="matrix(0.0728395061728395,0,0,0.0728395061728395,53.75555555555555,0)" xlink:href="#aO"/><use transform="matrix(0.0728395061728395,0,0,0.0728395061728395,63.953086419753085,0)" xlink:href="#aM"/><use transform="matrix(0.0728395061728395,0,0,0.0728395061728395,78.52098765432099,0)" xlink:href="#aP"/></g><path fill="#a9afb8" d="M176-78C186 10 51 31 16-35c-5-9-9-19-11-32l52-8c4 21 12 37 35 38 23 0 32-16 32-40v-130H75v-41h101v170" id="aQ"/><path fill="#a9afb8" d="M110-194c64 0 96 36 96 99 0 64-35 99-97 99-61 0-95-36-95-99 0-62 34-99 96-99zm-1 164c35 0 45-28 45-65 0-40-10-65-43-65-34 0-45 26-45 65 0 36 10 65 43 65" id="aR"/><path fill="#a9afb8" d="M135-194c53 0 70 44 70 98 0 56-19 98-73 100-31 1-45-17-59-34 3 33 2 69 2 105H25l-1-265h48c2 10 0 23 3 31 11-24 29-35 60-35zM114-30c33 0 39-31 40-66 0-38-9-64-40-64-56 0-55 130 0 130" id="aS"/><path fill="#a9afb8" d="M123 10C108 53 80 86 19 72V37c35 8 53-11 59-39L3-190h52l48 148c12-52 28-100 44-148h51" id="aT"/><g id="p"><use transform="matrix(0.0728395061728395,0,0,0.0728395061728395,0,0)" xlink:href="#aQ"/><use transform="matrix(0.0728395061728395,0,0,0.0728395061728395,14.5679012345679,0)" xlink:href="#aF"/><use transform="matrix(0.0728395061728395,0,0,0.0728395061728395,29.1358024691358,0)" xlink:href="#aR"/><use transform="matrix(0.0728395061728395,0,0,0.0728395061728395,45.08765432098765,0)" xlink:href="#aS"/><use transform="matrix(0.0728395061728395,0,0,0.0728395061728395,61.0395061728395,0)" xlink:href="#aM"/><use transform="matrix(0.0728395061728395,0,0,0.0728395061728395,75.60740740740741,0)" xlink:href="#aO"/><use transform="matrix(0.0728395061728395,0,0,0.0728395061728395,85.80493827160494,0)" xlink:href="#aK"/><use transform="matrix(0.0728395061728395,0,0,0.0728395061728395,101.75679012345678,0)" xlink:href="#aT"/></g><path fill="#a9afb8" d="M205 0l-28-72H64L36 0H1l101-248h38L239 0h-34zm-38-99l-47-123c-12 45-31 82-46 123h93" id="aU"/><path fill="#a9afb8" d="M24 0v-261h32V0H24" id="aV"/><path fill="#a9afb8" d="M100-194c63 0 86 42 84 106H49c0 40 14 67 53 68 26 1 43-12 49-29l28 8c-11 28-37 45-77 45C44 4 14-33 15-96c1-61 26-98 85-98zm52 81c6-60-76-77-97-28-3 7-6 17-6 28h103" id="aW"/><path fill="#a9afb8" d="M143 0L79-87 56-68V0H24v-261h32v163l83-92h37l-77 82L181 0h-38" id="aX"/><path fill="#a9afb8" d="M135-143c-3-34-86-38-87 0 15 53 115 12 119 90S17 21 10-45l28-5c4 36 97 45 98 0-10-56-113-15-118-90-4-57 82-63 122-42 12 7 21 19 24 35" id="aY"/><path fill="#a9afb8" d="M179-190L93 31C79 59 56 82 12 73V49c39 6 53-20 64-50L1-190h34L92-34l54-156h33" id="aZ"/><g id="q"><use transform="matrix(0.04248971193415638,0,0,0.04248971193415638,0,0)" xlink:href="#aU"/><use transform="matrix(0.04248971193415638,0,0,0.04248971193415638,10.19753086419753,0)" xlink:href="#aV"/><use transform="matrix(0.04248971193415638,0,0,0.04248971193415638,13.554218106995881,0)" xlink:href="#aW"/><use transform="matrix(0.04248971193415638,0,0,0.04248971193415638,22.05216049382716,0)" xlink:href="#aX"/><use transform="matrix(0.04248971193415638,0,0,0.04248971193415638,29.700308641975308,0)" xlink:href="#aY"/><use transform="matrix(0.04248971193415638,0,0,0.04248971193415638,37.34845679012346,0)" xlink:href="#aW"/><use transform="matrix(0.04248971193415638,0,0,0.04248971193415638,45.84639917695473,0)" xlink:href="#aZ"/></g><path fill="#a9afb8" d="M185-189c-5-48-123-54-124 2 14 75 158 14 163 119 3 78-121 87-175 55-17-10-28-26-33-46l33-7c5 56 141 63 141-1 0-78-155-14-162-118-5-82 145-84 179-34 5 7 8 16 11 25" id="ba"/><path fill="#a9afb8" d="M108 0H70L1-190h34L89-25l56-165h34" id="bb"/><path fill="#a9afb8" d="M24-231v-30h32v30H24zM24 0v-190h32V0H24" id="bc"/><path fill="#a9afb8" d="M59-47c-2 24 18 29 38 22v24C64 9 27 4 27-40v-127H5v-23h24l9-43h21v43h35v23H59v120" id="bd"/><path fill="#a9afb8" d="M84 4C-5 8 30-112 23-190h32v120c0 31 7 50 39 49 72-2 45-101 50-169h31l1 190h-30c-1-10 1-25-2-33-11 22-28 36-60 37" id="be"/><path fill="#a9afb8" d="M117-194c89-4 53 116 60 194h-32v-121c0-31-8-49-39-48C34-167 62-67 57 0H25l-1-190h30c1 10-1 24 2 32 11-22 29-35 61-36" id="bf"/><path fill="#a9afb8" d="M100-194c62-1 85 37 85 99 1 63-27 99-86 99S16-35 15-95c0-66 28-99 85-99zM99-20c44 1 53-31 53-75 0-43-8-75-51-75s-53 32-53 75 10 74 51 75" id="bg"/><g id="r"><use transform="matrix(0.04248971193415638,0,0,0.04248971193415638,0,0)" xlink:href="#ba"/><use transform="matrix(0.04248971193415638,0,0,0.04248971193415638,10.19753086419753,0)" xlink:href="#bb"/><use transform="matrix(0.04248971193415638,0,0,0.04248971193415638,17.845679012345677,0)" xlink:href="#bc"/><use transform="matrix(0.04248971193415638,0,0,0.04248971193415638,21.20236625514403,0)" xlink:href="#aY"/><use transform="matrix(0.04248971193415638,0,0,0.04248971193415638,28.85051440329218,0)" xlink:href="#bd"/><use transform="matrix(0.04248971193415638,0,0,0.04248971193415638,33.099485596707815,0)" xlink:href="#be"/><use transform="matrix(0.04248971193415638,0,0,0.04248971193415638,41.59742798353909,0)" xlink:href="#bf"/><use transform="matrix(0.04248971193415638,0,0,0.04248971193415638,50.09537037037037,0)" xlink:href="#bg"/><use transform="matrix(0.04248971193415638,0,0,0.04248971193415638,58.593312757201645,0)" xlink:href="#bb"/></g><path fill="#a9afb8" d="M32 76v-337h29V76H32" id="bh"/><use transform="matrix(0.04248971193415638,0,0,0.04248971193415638,0,0)" xlink:href="#bh" id="s"/><path fill="#a9afb8" d="M63-220v92h138v28H63V0H30v-248h175v28H63" id="bi"/><path fill="#a9afb8" d="M115-194c53 0 69 39 70 98 0 66-23 100-70 100C84 3 66-7 56-30L54 0H23l1-261h32v101c10-23 28-34 59-34zm-8 174c40 0 45-34 45-75 0-40-5-75-45-74-42 0-51 32-51 76 0 43 10 73 51 73" id="bj"/><path fill="#a9afb8" d="M114-163C36-179 61-72 57 0H25l-1-190h30c1 12-1 29 2 39 6-27 23-49 58-41v29" id="bk"/><path fill="#a9afb8" d="M141-36C126-15 110 5 73 4 37 3 15-17 15-53c-1-64 63-63 125-63 3-35-9-54-41-54-24 1-41 7-42 31l-33-3c5-37 33-52 76-52 45 0 72 20 72 64v82c-1 20 7 32 28 27v20c-31 9-61-2-59-35zM48-53c0 20 12 33 32 33 41-3 63-29 60-74-43 2-92-5-92 41" id="bl"/><g id="t"><use transform="matrix(0.04248971193415638,0,0,0.04248971193415638,0,0)" xlink:href="#bi"/><use transform="matrix(0.04248971193415638,0,0,0.04248971193415638,9.305246913580246,0)" xlink:href="#aW"/><use transform="matrix(0.04248971193415638,0,0,0.04248971193415638,17.80318930041152,0)" xlink:href="#bj"/><use transform="matrix(0.04248971193415638,0,0,0.04248971193415638,26.301131687242794,0)" xlink:href="#bk"/><use transform="matrix(0.04248971193415638,0,0,0.04248971193415638,31.357407407407408,0)" xlink:href="#be"/><use transform="matrix(0.04248971193415638,0,0,0.04248971193415638,39.85534979423868,0)" xlink:href="#bl"/><use transform="matrix(0.04248971193415638,0,0,0.04248971193415638,48.35329218106995,0)" xlink:href="#bk"/><use transform="matrix(0.04248971193415638,0,0,0.04248971193415638,53.40956790123455,0)" xlink:href="#aZ"/></g><path fill="#a9afb8" d="M101-251c82-7 93 87 43 132L82-64C71-53 59-42 53-27h129V0H18c2-99 128-94 128-182 0-28-16-43-45-43s-46 15-49 41l-32-3c6-41 34-60 81-64" id="bm"/><path fill="#a9afb8" d="M134-131c28 9 52 24 51 62-1 50-34 73-85 73S17-19 16-69c0-36 21-54 49-61-75-25-45-126 34-121 46 3 78 18 79 63 0 33-17 51-44 57zm-34-11c31 1 46-15 46-44 0-28-17-43-47-42-29 0-46 13-45 42 1 28 16 44 46 44zm1 122c35 0 51-18 51-52 0-30-18-46-53-46-33 0-51 17-51 47 0 34 19 51 53 51" id="bn"/><path fill="#a9afb8" d="M68-38c1 34 0 65-14 84H32c9-13 17-26 17-46H33v-38h35" id="bo"/><g id="u"><use transform="matrix(0.04248971193415638,0,0,0.04248971193415638,0,0)" xlink:href="#bm"/><use transform="matrix(0.04248971193415638,0,0,0.04248971193415638,8.497942386831275,0)" xlink:href="#bn"/><use transform="matrix(0.04248971193415638,0,0,0.04248971193415638,16.99588477366255,0)" xlink:href="#bo"/></g><path fill="#a9afb8" d="M101-251c68 0 85 55 85 127S166 4 100 4C33 4 14-52 14-124c0-73 17-127 87-127zm-1 229c47 0 54-49 54-102s-4-102-53-102c-51 0-55 48-55 102 0 53 5 102 54 102" id="bp"/><path fill="#a9afb8" d="M126-127c33 6 58 20 58 59 0 88-139 92-164 29-3-8-5-16-6-25l32-3c6 27 21 44 54 44 32 0 52-15 52-46 0-38-36-46-79-43v-28c39 1 72-4 72-42 0-27-17-43-46-43-28 0-47 15-49 41l-32-3c6-42 35-63 81-64 48-1 79 21 79 65 0 36-21 52-52 59" id="bq"/><g id="v"><use transform="matrix(0.04248971193415638,0,0,0.04248971193415638,0,0)" xlink:href="#bm"/><use transform="matrix(0.04248971193415638,0,0,0.04248971193415638,8.497942386831275,0)" xlink:href="#bp"/><use transform="matrix(0.04248971193415638,0,0,0.04248971193415638,16.99588477366255,0)" xlink:href="#bm"/><use transform="matrix(0.04248971193415638,0,0,0.04248971193415638,25.493827160493822,0)" xlink:href="#bq"/></g><g id="w"><use transform="matrix(0.04938271604938272,0,0,0.04938271604938272,0,0)" xlink:href="#ae"/><use transform="matrix(0.04938271604938272,0,0,0.04938271604938272,9.876543209876544,0)" xlink:href="#ap"/><use transform="matrix(0.04938271604938272,0,0,0.04938271604938272,19.75308641975309,0)" xlink:href="#aC"/><use transform="matrix(0.04938271604938272,0,0,0.04938271604938272,34.51851851851852,0)" xlink:href="#al"/></g><g id="x"><use transform="matrix(0.04938271604938272,0,0,0.04938271604938272,0,0)" xlink:href="#al"/><use transform="matrix(0.04938271604938272,0,0,0.04938271604938272,9.876543209876544,0)" xlink:href="#ao"/><use transform="matrix(0.04938271604938272,0,0,0.04938271604938272,18.765432098765434,0)" xlink:href="#al"/><use transform="matrix(0.04938271604938272,0,0,0.04938271604938272,28.641975308641978,0)" xlink:href="#aA"/><use transform="matrix(0.04938271604938272,0,0,0.04938271604938272,34.51851851851852,0)" xlink:href="#az"/></g><g id="y"><use transform="matrix(0.04938271604938272,0,0,0.04938271604938272,0,0)" xlink:href="#ab"/><use transform="matrix(0.04938271604938272,0,0,0.04938271604938272,9.876543209876544,0)" xlink:href="#aq"/><use transform="matrix(0.04938271604938272,0,0,0.04938271604938272,13.777777777777779,0)" xlink:href="#ap"/><use transform="matrix(0.04938271604938272,0,0,0.04938271604938272,23.654320987654323,0)" xlink:href="#az"/><use transform="matrix(0.04938271604938272,0,0,0.04938271604938272,32.543209876543216,0)" xlink:href="#al"/><use transform="matrix(0.04938271604938272,0,0,0.04938271604938272,42.41975308641976,0)" xlink:href="#aA"/></g><path fill="#333" d="M103-194c29 0 47 14 56 36 2-11 5-23 8-32h30L160-5C157 61 82 97 21 62 9 55 4 45 1 30l28-7c7 42 83 31 92-3 4-16 9-38 13-55-13 20-29 36-62 36-40 0-60-25-60-64 0-71 23-131 91-131zm4 24c-53 0-58 54-61 104-2 27 10 44 36 44 49 0 65-50 67-102 1-29-15-46-42-46" id="br"/><g id="z"><use transform="matrix(0.04938271604938272,0,0,0.04938271604938272,0,0)" xlink:href="#br"/><use transform="matrix(0.04938271604938272,0,0,0.04938271604938272,9.876543209876544,0)" xlink:href="#al"/><use transform="matrix(0.04938271604938272,0,0,0.04938271604938272,19.75308641975309,0)" xlink:href="#ah"/></g><g id="A"><use transform="matrix(0.04938271604938272,0,0,0.04938271604938272,0,0)" xlink:href="#aa"/><use transform="matrix(0.04938271604938272,0,0,0.04938271604938272,9.876543209876544,0)" xlink:href="#ab"/><use transform="matrix(0.04938271604938272,0,0,0.04938271604938272,19.75308641975309,0)" xlink:href="#al"/><use transform="matrix(0.04938271604938272,0,0,0.04938271604938272,29.629629629629633,0)" xlink:href="#ae"/><use transform="matrix(0.04938271604938272,0,0,0.04938271604938272,39.50617283950618,0)" xlink:href="#ag"/><use transform="matrix(0.04938271604938272,0,0,0.04938271604938272,43.40740740740741,0)" xlink:href="#ae"/><use transform="matrix(0.04938271604938272,0,0,0.04938271604938272,53.283950617283956,0)" xlink:href="#br"/></g><g id="B"><use transform="matrix(0.04938271604938272,0,0,0.04938271604938272,0,0)" xlink:href="#aj"/><use transform="matrix(0.04938271604938272,0,0,0.04938271604938272,9.876543209876544,0)" xlink:href="#ak"/><use transform="matrix(0.04938271604938272,0,0,0.04938271604938272,19.75308641975309,0)" xlink:href="#al"/><use transform="matrix(0.04938271604938272,0,0,0.04938271604938272,29.629629629629633,0)" xlink:href="#am"/><use transform="matrix(0.04938271604938272,0,0,0.04938271604938272,38.51851851851852,0)" xlink:href="#ah"/><use transform="matrix(0.04938271604938272,0,0,0.04938271604938272,43.45679012345679,0)" xlink:href="#ag"/><use transform="matrix(0.04938271604938272,0,0,0.04938271604938272,47.358024691358025,0)" xlink:href="#aa"/><use transform="matrix(0.04938271604938272,0,0,0.04938271604938272,57.23456790123457,0)" xlink:href="#ae"/><use transform="matrix(0.04938271604938272,0,0,0.04938271604938272,67.11111111111111,0)" xlink:href="#am"/></g><g id="C"><use transform="matrix(0.04938271604938272,0,0,0.04938271604938272,0,0)" xlink:href="#aA"/><use transform="matrix(0.04938271604938272,0,0,0.04938271604938272,5.8765432098765435,0)" xlink:href="#al"/><use transform="matrix(0.04938271604938272,0,0,0.04938271604938272,15.753086419753087,0)" xlink:href="#am"/><use transform="matrix(0.04938271604938272,0,0,0.04938271604938272,24.641975308641978,0)" xlink:href="#ab"/><use transform="matrix(0.04938271604938272,0,0,0.04938271604938272,34.51851851851852,0)" xlink:href="#aa"/><use transform="matrix(0.04938271604938272,0,0,0.04938271604938272,44.39506172839506,0)" xlink:href="#ae"/><use transform="matrix(0.04938271604938272,0,0,0.04938271604938272,54.27160493827161,0)" xlink:href="#af"/></g><path fill="#3a414a" d="M85-194c31 0 48 13 60 33l-1-100h32l1 261h-30c-2-10 0-23-3-31C134-8 116 4 85 4 32 4 16-35 15-94c0-66 23-100 70-100zm9 24c-40 0-46 34-46 75 0 40 6 74 45 74 42 0 51-32 51-76 0-42-9-74-50-73" id="bs"/><path fill="#3a414a" d="M24-231v-30h32v30H24zM24 0v-190h32V0H24" id="bt"/><path fill="#3a414a" d="M135-143c-3-34-86-38-87 0 15 53 115 12 119 90S17 21 10-45l28-5c4 36 97 45 98 0-10-56-113-15-118-90-4-57 82-63 122-42 12 7 21 19 24 35" id="bu"/><path fill="#3a414a" d="M115-194c55 1 70 41 70 98S169 2 115 4C84 4 66-9 55-30l1 105H24l-1-265h31l2 30c10-21 28-34 59-34zm-8 174c40 0 45-34 45-75s-6-73-45-74c-42 0-51 32-51 76 0 43 10 73 51 73" id="bv"/><path fill="#3a414a" d="M24 0v-261h32V0H24" id="bw"/><path fill="#3a414a" d="M141-36C126-15 110 5 73 4 37 3 15-17 15-53c-1-64 63-63 125-63 3-35-9-54-41-54-24 1-41 7-42 31l-33-3c5-37 33-52 76-52 45 0 72 20 72 64v82c-1 20 7 32 28 27v20c-31 9-61-2-59-35zM48-53c0 20 12 33 32 33 41-3 63-29 60-74-43 2-92-5-92 41" id="bx"/><path fill="#3a414a" d="M179-190L93 31C79 59 56 82 12 73V49c39 6 53-20 64-50L1-190h34L92-34l54-156h33" id="by"/><g id="D"><use transform="matrix(0.05,0,0,0.05,0,0)" xlink:href="#bs"/><use transform="matrix(0.05,0,0,0.05,10,0)" xlink:href="#bt"/><use transform="matrix(0.05,0,0,0.05,13.949999999999998,0)" xlink:href="#bu"/><use transform="matrix(0.05,0,0,0.05,22.95,0)" xlink:href="#bv"/><use transform="matrix(0.05,0,0,0.05,32.95,0)" xlink:href="#bw"/><use transform="matrix(0.05,0,0,0.05,36.900000000000006,0)" xlink:href="#bx"/><use transform="matrix(0.05,0,0,0.05,46.900000000000006,0)" xlink:href="#by"/></g><path fill="#3a414a" d="M145-31C134-9 116 4 85 4 32 4 16-35 15-94c0-59 17-99 70-100 32-1 48 14 60 33 0-11-1-24 2-32h30l-1 268h-32zM93-21c41 0 51-33 51-76s-8-73-50-73c-40 0-46 35-46 75s5 74 45 74" id="bz"/><path fill="#3a414a" d="M84 4C-5 8 30-112 23-190h32v120c0 31 7 50 39 49 72-2 45-101 50-169h31l1 190h-30c-1-10 1-25-2-33-11 22-28 36-60 37" id="bA"/><path fill="#3a414a" d="M100-194c63 0 86 42 84 106H49c0 40 14 67 53 68 26 1 43-12 49-29l28 8c-11 28-37 45-77 45C44 4 14-33 15-96c1-61 26-98 85-98zm52 81c6-60-76-77-97-28-3 7-6 17-6 28h103" id="bB"/><path fill="#3a414a" d="M59-47c-2 24 18 29 38 22v24C64 9 27 4 27-40v-127H5v-23h24l9-43h21v43h35v23H59v120" id="bC"/><path fill="#3a414a" d="M100-194c62-1 85 37 85 99 1 63-27 99-86 99S16-35 15-95c0-66 28-99 85-99zM99-20c44 1 53-31 53-75 0-43-8-75-51-75s-53 32-53 75 10 74 51 75" id="bD"/><path fill="#3a414a" d="M117-194c89-4 53 116 60 194h-32v-121c0-31-8-49-39-48C34-167 62-67 57 0H25l-1-190h30c1 10-1 24 2 32 11-22 29-35 61-36" id="bE"/><g id="E"><use transform="matrix(0.05,0,0,0.05,0,0)" xlink:href="#bz"/><use transform="matrix(0.05,0,0,0.05,10,0)" xlink:href="#bA"/><use transform="matrix(0.05,0,0,0.05,20,0)" xlink:href="#bB"/><use transform="matrix(0.05,0,0,0.05,30,0)" xlink:href="#bu"/><use transform="matrix(0.05,0,0,0.05,39,0)" xlink:href="#bC"/><use transform="matrix(0.05,0,0,0.05,44,0)" xlink:href="#bt"/><use transform="matrix(0.05,0,0,0.05,47.95,0)" xlink:href="#bD"/><use transform="matrix(0.05,0,0,0.05,57.95,0)" xlink:href="#bE"/></g><g id="F"><use transform="matrix(0.04938271604938272,0,0,0.04938271604938272,0,0)" xlink:href="#aw"/><use transform="matrix(0.04938271604938272,0,0,0.04938271604938272,8.88888888888889,0)" xlink:href="#aq"/><use transform="matrix(0.04938271604938272,0,0,0.04938271604938272,12.790123456790125,0)" xlink:href="#ag"/><use transform="matrix(0.04938271604938272,0,0,0.04938271604938272,16.691358024691358,0)" xlink:href="#aw"/><use transform="matrix(0.04938271604938272,0,0,0.04938271604938272,25.58024691358025,0)" xlink:href="#ax"/></g><path fill="#333" d="M-8 0l5-24 140-142H31l5-24h145l-5 24L36-24h119l-5 24H-8" id="bF"/><g id="G"><use transform="matrix(0.04938271604938272,0,0,0.04938271604938272,0,0)" xlink:href="#ar"/><use transform="matrix(0.04938271604938272,0,0,0.04938271604938272,9.876543209876544,0)" xlink:href="#ak"/><use transform="matrix(0.04938271604938272,0,0,0.04938271604938272,19.75308641975309,0)" xlink:href="#bF"/><use transform="matrix(0.04938271604938272,0,0,0.04938271604938272,28.641975308641978,0)" xlink:href="#bF"/><use transform="matrix(0.04938271604938272,0,0,0.04938271604938272,37.53086419753087,0)" xlink:href="#al"/><use transform="matrix(0.04938271604938272,0,0,0.04938271604938272,47.40740740740741,0)" xlink:href="#aA"/></g><path fill="#3a414a" d="M177-190C167-65 218 103 67 71c-23-6-38-20-44-43l32-5c15 47 100 32 89-28v-30C133-14 115 1 83 1 29 1 15-40 15-95c0-56 16-97 71-98 29-1 48 16 59 35 1-10 0-23 2-32h30zM94-22c36 0 50-32 50-73 0-42-14-75-50-75-39 0-46 34-46 75s6 73 46 73" id="bG"/><g id="H"><use transform="matrix(0.05,0,0,0.05,0,0)" xlink:href="#bG"/><use transform="matrix(0.05,0,0,0.05,10,0)" xlink:href="#bB"/><use transform="matrix(0.05,0,0,0.05,20,0)" xlink:href="#bC"/></g><path fill="#3a414a" d="M96-169c-40 0-48 33-48 73s9 75 48 75c24 0 41-14 43-38l32 2c-6 37-31 61-74 61-59 0-76-41-82-99-10-93 101-131 147-64 4 7 5 14 7 22l-32 3c-4-21-16-35-41-35" id="bH"/><path fill="#3a414a" d="M114-163C36-179 61-72 57 0H25l-1-190h30c1 12-1 29 2 39 6-27 23-49 58-41v29" id="bI"/><g id="I"><use transform="matrix(0.05,0,0,0.05,0,0)" xlink:href="#bH"/><use transform="matrix(0.05,0,0,0.05,9,0)" xlink:href="#bx"/><use transform="matrix(0.05,0,0,0.05,19,0)" xlink:href="#bC"/><use transform="matrix(0.05,0,0,0.05,24,0)" xlink:href="#bB"/><use transform="matrix(0.05,0,0,0.05,34,0)" xlink:href="#bG"/><use transform="matrix(0.05,0,0,0.05,44,0)" xlink:href="#bD"/><use transform="matrix(0.05,0,0,0.05,54,0)" xlink:href="#bI"/><use transform="matrix(0.05,0,0,0.05,59.95,0)" xlink:href="#bt"/><use transform="matrix(0.05,0,0,0.05,63.900000000000006,0)" xlink:href="#bB"/><use transform="matrix(0.05,0,0,0.05,73.9,0)" xlink:href="#bu"/></g><g id="J"><use transform="matrix(0.05,0,0,0.05,0,0)" xlink:href="#bI"/><use transform="matrix(0.05,0,0,0.05,5.95,0)" xlink:href="#bB"/><use transform="matrix(0.05,0,0,0.05,15.949999999999998,0)" xlink:href="#bu"/><use transform="matrix(0.05,0,0,0.05,24.95,0)" xlink:href="#bv"/><use transform="matrix(0.05,0,0,0.05,34.95,0)" xlink:href="#bD"/><use transform="matrix(0.05,0,0,0.05,44.95,0)" xlink:href="#bE"/><use transform="matrix(0.05,0,0,0.05,54.95,0)" xlink:href="#bs"/></g><path fill="#333" d="M188 0h-37l-8-164L71 0H34L18-190h31l8 164 75-164h34l8 164 74-164h31" id="bJ"/><g id="K"><use transform="matrix(0.04938271604938272,0,0,0.04938271604938272,0,0)" xlink:href="#ap"/><use transform="matrix(0.04938271604938272,0,0,0.04938271604938272,9.876543209876544,0)" xlink:href="#ae"/><use transform="matrix(0.04938271604938272,0,0,0.04938271604938272,19.75308641975309,0)" xlink:href="#am"/><use transform="matrix(0.04938271604938272,0,0,0.04938271604938272,28.641975308641978,0)" xlink:href="#bJ"/><use transform="matrix(0.04938271604938272,0,0,0.04938271604938272,41.4320987654321,0)" xlink:href="#al"/><use transform="matrix(0.04938271604938272,0,0,0.04938271604938272,51.308641975308646,0)" xlink:href="#aA"/></g><g id="L"><use transform="matrix(0.04938271604938272,0,0,0.04938271604938272,0,0)" xlink:href="#aj"/><use transform="matrix(0.04938271604938272,0,0,0.04938271604938272,9.876543209876544,0)" xlink:href="#ak"/><use transform="matrix(0.04938271604938272,0,0,0.04938271604938272,19.75308641975309,0)" xlink:href="#al"/><use transform="matrix(0.04938271604938272,0,0,0.04938271604938272,29.629629629629633,0)" xlink:href="#am"/><use transform="matrix(0.04938271604938272,0,0,0.04938271604938272,38.51851851851852,0)" xlink:href="#ah"/><use transform="matrix(0.04938271604938272,0,0,0.04938271604938272,43.45679012345679,0)" xlink:href="#ag"/><use transform="matrix(0.04938271604938272,0,0,0.04938271604938272,47.358024691358025,0)" xlink:href="#aa"/><use transform="matrix(0.04938271604938272,0,0,0.04938271604938272,57.23456790123457,0)" xlink:href="#ae"/></g><g id="M"><use transform="matrix(0.05,0,0,0.05,0,0)" xlink:href="#bu"/><use transform="matrix(0.05,0,0,0.05,9,0)" xlink:href="#bB"/><use transform="matrix(0.05,0,0,0.05,19,0)" xlink:href="#bE"/><use transform="matrix(0.05,0,0,0.05,29,0)" xlink:href="#bs"/></g><path fill="#3a414a" d="M206 0h-36l-40-164L89 0H53L-1-190h32L70-26l43-164h34l41 164 42-164h31" id="bK"/><g id="N"><use transform="matrix(0.05,0,0,0.05,0,0)" xlink:href="#bx"/><use transform="matrix(0.05,0,0,0.05,10,0)" xlink:href="#bE"/><use transform="matrix(0.05,0,0,0.05,20,0)" xlink:href="#bu"/><use transform="matrix(0.05,0,0,0.05,29,0)" xlink:href="#bK"/><use transform="matrix(0.05,0,0,0.05,41.95,0)" xlink:href="#bB"/><use transform="matrix(0.05,0,0,0.05,51.95,0)" xlink:href="#bI"/></g><path fill="#3a414a" d="M0 4l72-265h28L28 4H0" id="bL"/><g id="O"><use transform="matrix(0.05,0,0,0.05,0,0)" xlink:href="#bH"/><use transform="matrix(0.05,0,0,0.05,9,0)" xlink:href="#bD"/><use transform="matrix(0.05,0,0,0.05,19,0)" xlink:href="#bI"/><use transform="matrix(0.05,0,0,0.05,24.95,0)" xlink:href="#bI"/><use transform="matrix(0.05,0,0,0.05,30.899999999999995,0)" xlink:href="#bB"/><use transform="matrix(0.05,0,0,0.05,40.9,0)" xlink:href="#bH"/><use transform="matrix(0.05,0,0,0.05,49.9,0)" xlink:href="#bC"/><use transform="matrix(0.05,0,0,0.05,54.900000000000006,0)" xlink:href="#bL"/></g><g id="P"><use transform="matrix(0.05,0,0,0.05,0,0)" xlink:href="#bt"/><use transform="matrix(0.05,0,0,0.05,3.95,0)" xlink:href="#bE"/><use transform="matrix(0.05,0,0,0.05,13.949999999999998,0)" xlink:href="#bH"/><use transform="matrix(0.05,0,0,0.05,22.95,0)" xlink:href="#bD"/><use transform="matrix(0.05,0,0,0.05,32.95,0)" xlink:href="#bI"/><use transform="matrix(0.05,0,0,0.05,38.900000000000006,0)" xlink:href="#bI"/><use transform="matrix(0.05,0,0,0.05,44.85000000000001,0)" xlink:href="#bB"/><use transform="matrix(0.05,0,0,0.05,54.85,0)" xlink:href="#bH"/><use transform="matrix(0.05,0,0,0.05,63.85,0)" xlink:href="#bC"/></g><g id="Q"><use transform="matrix(0.05,0,0,0.05,0,0)" xlink:href="#bK"/><use transform="matrix(0.05,0,0,0.05,12.950000000000001,0)" xlink:href="#bI"/><use transform="matrix(0.05,0,0,0.05,18.900000000000002,0)" xlink:href="#bD"/><use transform="matrix(0.05,0,0,0.05,28.900000000000002,0)" xlink:href="#bE"/><use transform="matrix(0.05,0,0,0.05,38.900000000000006,0)" xlink:href="#bG"/><use transform="matrix(0.05,0,0,0.05,48.900000000000006,0)" xlink:href="#bL"/></g><g id="R"><use transform="matrix(0.05,0,0,0.05,0,0)" xlink:href="#bH"/><use transform="matrix(0.05,0,0,0.05,9,0)" xlink:href="#bD"/><use transform="matrix(0.05,0,0,0.05,19,0)" xlink:href="#bI"/><use transform="matrix(0.05,0,0,0.05,24.95,0)" xlink:href="#bI"/><use transform="matrix(0.05,0,0,0.05,30.899999999999995,0)" xlink:href="#bB"/><use transform="matrix(0.05,0,0,0.05,40.9,0)" xlink:href="#bH"/><use transform="matrix(0.05,0,0,0.05,49.9,0)" xlink:href="#bC"/></g><g id="S"><use transform="matrix(0.05,0,0,0.05,0,0)" xlink:href="#bH"/><use transform="matrix(0.05,0,0,0.05,9,0)" xlink:href="#bA"/><use transform="matrix(0.05,0,0,0.05,19,0)" xlink:href="#bI"/><use transform="matrix(0.05,0,0,0.05,24.95,0)" xlink:href="#bI"/><use transform="matrix(0.05,0,0,0.05,30.899999999999995,0)" xlink:href="#bB"/><use transform="matrix(0.05,0,0,0.05,40.9,0)" xlink:href="#bE"/><use transform="matrix(0.05,0,0,0.05,50.9,0)" xlink:href="#bC"/></g><g id="T"><use transform="matrix(0.05,0,0,0.05,0,0)" xlink:href="#bu"/><use transform="matrix(0.05,0,0,0.05,9,0)" xlink:href="#bH"/><use transform="matrix(0.05,0,0,0.05,18,0)" xlink:href="#bD"/><use transform="matrix(0.05,0,0,0.05,28,0)" xlink:href="#bI"/><use transform="matrix(0.05,0,0,0.05,33.95,0)" xlink:href="#bB"/></g><g id="U"><use transform="matrix(0.04938271604938272,0,0,0.04938271604938272,0,0)" xlink:href="#bJ"/><use transform="matrix(0.04938271604938272,0,0,0.04938271604938272,12.790123456790125,0)" xlink:href="#ag"/><use transform="matrix(0.04938271604938272,0,0,0.04938271604938272,16.69135802469136,0)" xlink:href="#ae"/><use transform="matrix(0.04938271604938272,0,0,0.04938271604938272,26.567901234567902,0)" xlink:href="#ae"/><use transform="matrix(0.04938271604938272,0,0,0.04938271604938272,36.44444444444445,0)" xlink:href="#al"/><use transform="matrix(0.04938271604938272,0,0,0.04938271604938272,46.320987654320994,0)" xlink:href="#aA"/></g><g id="V"><use transform="matrix(0.04938271604938272,0,0,0.04938271604938272,0,0)" xlink:href="#am"/><use transform="matrix(0.04938271604938272,0,0,0.04938271604938272,8.88888888888889,0)" xlink:href="#al"/><use transform="matrix(0.04938271604938272,0,0,0.04938271604938272,18.765432098765434,0)" xlink:href="#aq"/><use transform="matrix(0.04938271604938272,0,0,0.04938271604938272,22.666666666666668,0)" xlink:href="#al"/><use transform="matrix(0.04938271604938272,0,0,0.04938271604938272,32.543209876543216,0)" xlink:href="#aw"/><use transform="matrix(0.04938271604938272,0,0,0.04938271604938272,41.4320987654321,0)" xlink:href="#ah"/><use transform="matrix(0.04938271604938272,0,0,0.04938271604938272,46.370370370370374,0)" xlink:href="#am"/></g><g id="W"><use transform="matrix(0.04938271604938272,0,0,0.04938271604938272,0,0)" xlink:href="#ae"/><use transform="matrix(0.04938271604938272,0,0,0.04938271604938272,9.876543209876544,0)" xlink:href="#al"/><use transform="matrix(0.04938271604938272,0,0,0.04938271604938272,19.75308641975309,0)" xlink:href="#bJ"/></g><g id="X"><use transform="matrix(0.05,0,0,0.05,0,0)" xlink:href="#bz"/><use transform="matrix(0.05,0,0,0.05,10,0)" xlink:href="#bA"/><use transform="matrix(0.05,0,0,0.05,20,0)" xlink:href="#bB"/><use transform="matrix(0.05,0,0,0.05,30,0)" xlink:href="#bu"/><use transform="matrix(0.05,0,0,0.05,39,0)" xlink:href="#bC"/><use transform="matrix(0.05,0,0,0.05,44,0)" xlink:href="#bt"/><use transform="matrix(0.05,0,0,0.05,47.95,0)" xlink:href="#bD"/><use transform="matrix(0.05,0,0,0.05,57.95,0)" xlink:href="#bE"/><use transform="matrix(0.05,0,0,0.05,67.95,0)" xlink:href="#bu"/></g><path fill="#3a414a" d="M106-169C34-169 62-67 57 0H25v-261h32l-1 103c12-21 28-36 61-36 89 0 53 116 60 194h-32v-121c2-32-8-49-39-48" id="bM"/><g id="Y"><use transform="matrix(0.05,0,0,0.05,0,0)" xlink:href="#bM"/><use transform="matrix(0.05,0,0,0.05,10,0)" xlink:href="#bt"/><use transform="matrix(0.05,0,0,0.05,13.949999999999998,0)" xlink:href="#bG"/><use transform="matrix(0.05,0,0,0.05,23.95,0)" xlink:href="#bM"/><use transform="matrix(0.05,0,0,0.05,33.95,0)" xlink:href="#bu"/><use transform="matrix(0.05,0,0,0.05,42.95,0)" xlink:href="#bH"/><use transform="matrix(0.05,0,0,0.05,51.95,0)" xlink:href="#bD"/><use transform="matrix(0.05,0,0,0.05,61.95,0)" xlink:href="#bI"/><use transform="matrix(0.05,0,0,0.05,67.9,0)" xlink:href="#bB"/><use transform="matrix(0.05,0,0,0.05,77.9,0)" xlink:href="#bu"/></g></defs></g></svg>